# xmcd CD database file
#
# Track frame offsets:
#	150
#	14626
#	31907
#	46566
#	64893
#	80594
#	97478
#	112164
#	128915
#	142764
#
# Disc length: 2091 seconds
#
# Revision: 0
# Processed by: cddbd v1.5.2PL0 Copyright (c) Steve Scherf et al.
# Submitted via: CDex 1.51
#
DISCID=8908290a
DTITLE=Hunter Eves - Unopened Box
DYEAR=1900
DGENRE=Blues
TTITLE0=Tissue Machines
TTITLE1=You And Me Iceberg
TTITLE2=Kamikaze Mother
TTITLE3=Brave Words
TTITLE4=Cubby
TTITLE5=Taken
TTITLE6=Tic-Tac Box Aquarium
TTITLE7=Hindsight
TTITLE8=Viciously Potent
TTITLE9=Random
EXTD=
EXTT0=
EXTT1=
EXTT2=
EXTT3=
EXTT4=
EXTT5=
EXTT6=
EXTT7=
EXTT8=
EXTT9=
PLAYORDER=
